<svg data-v-423bf9ae="" xmlns="http://www.w3.org/2000/svg" viewBox="0 0 366.4367622223958 60" class="font"><!----><!----><!----><g data-v-423bf9ae="" id="b7ee7038-1174-4e2a-9dbc-544e04e304e8" fill="black" transform="matrix(4.597701072692871,0,0,4.597701072692871,-2.9425227642059326,-11.632184982299805)"><path d="M8.70 10.01L8.70 10.01L8.70 10.01Q8.70 11.35 7.65 12.08L7.65 12.08L7.65 12.08Q6.61 12.81 4.72 12.81L4.72 12.81L4.72 12.81Q1.20 12.81 0.64 10.36L0.64 10.36L1.90 10.11L1.90 10.11Q2.12 10.98 2.83 11.39L2.83 11.39L2.83 11.39Q3.54 11.79 4.76 11.79L4.76 11.79L4.76 11.79Q6.03 11.79 6.72 11.36L6.72 11.36L6.72 11.36Q7.40 10.92 7.40 10.08L7.40 10.08L7.40 10.08Q7.40 9.61 7.19 9.32L7.19 9.32L7.19 9.32Q6.97 9.02 6.58 8.83L6.58 8.83L6.58 8.83Q6.19 8.64 5.65 8.51L5.65 8.51L5.65 8.51Q5.11 8.38 4.46 8.23L4.46 8.23L4.46 8.23Q3.32 7.98 2.72 7.72L2.72 7.72L2.72 7.72Q2.13 7.47 1.79 7.16L1.79 7.16L1.79 7.16Q1.45 6.85 1.27 6.43L1.27 6.43L1.27 6.43Q1.09 6.02 1.09 5.48L1.09 5.48L1.09 5.48Q1.09 4.24 2.03 3.57L2.03 3.57L2.03 3.57Q2.98 2.90 4.74 2.90L4.74 2.90L4.74 2.90Q6.38 2.90 7.25 3.40L7.25 3.40L7.25 3.40Q8.12 3.90 8.47 5.11L8.47 5.11L7.18 5.34L7.18 5.34Q6.97 4.57 6.38 4.23L6.38 4.23L6.38 4.23Q5.78 3.88 4.73 3.88L4.73 3.88L4.73 3.88Q3.58 3.88 2.97 4.27L2.97 4.27L2.97 4.27Q2.36 4.65 2.36 5.41L2.36 5.41L2.36 5.41Q2.36 5.85 2.59 6.14L2.59 6.14L2.59 6.14Q2.83 6.43 3.27 6.63L3.27 6.63L3.27 6.63Q3.72 6.84 5.04 7.13L5.04 7.13L5.04 7.13Q5.49 7.23 5.93 7.34L5.93 7.34L5.93 7.34Q6.37 7.44 6.77 7.59L6.77 7.59L6.77 7.59Q7.18 7.74 7.53 7.94L7.53 7.94L7.53 7.94Q7.88 8.13 8.14 8.42L8.14 8.42L8.14 8.42Q8.40 8.71 8.55 9.10L8.55 9.10L8.55 9.10Q8.70 9.49 8.70 10.01ZM10.64 15.58L10.64 15.58L10.64 15.58Q10.14 15.58 9.80 15.50L9.80 15.50L9.80 14.58L9.80 14.58Q10.06 14.62 10.37 14.62L10.37 14.62L10.37 14.62Q11.52 14.62 12.19 12.93L12.19 12.93L12.30 12.64L9.37 5.28L10.68 5.28L12.24 9.37L12.24 9.37Q12.28 9.46 12.33 9.59L12.33 9.59L12.33 9.59Q12.37 9.73 12.63 10.49L12.63 10.49L12.63 10.49Q12.89 11.25 12.91 11.33L12.91 11.33L13.39 9.99L15.01 5.28L16.31 5.28L13.47 12.67L13.47 12.67Q13.01 13.86 12.61 14.43L12.61 14.43L12.61 14.43Q12.22 15.01 11.73 15.30L11.73 15.30L11.73 15.30Q11.25 15.58 10.64 15.58ZM22.83 10.63L22.83 10.63L22.83 10.63Q22.83 11.68 22.04 12.24L22.04 12.24L22.04 12.24Q21.25 12.81 19.83 12.81L19.83 12.81L19.83 12.81Q18.45 12.81 17.70 12.36L17.70 12.36L17.70 12.36Q16.95 11.90 16.73 10.94L16.73 10.94L17.81 10.73L17.81 10.73Q17.97 11.32 18.46 11.60L18.46 11.60L18.46 11.60Q18.96 11.87 19.83 11.87L19.83 11.87L19.83 11.87Q20.77 11.87 21.20 11.59L21.20 11.59L21.20 11.59Q21.64 11.30 21.64 10.73L21.64 10.73L21.64 10.73Q21.64 10.29 21.33 10.01L21.33 10.01L21.33 10.01Q21.03 9.74 20.36 9.56L20.36 9.56L19.48 9.33L19.48 9.33Q18.42 9.06 17.98 8.79L17.98 8.79L17.98 8.79Q17.53 8.53 17.27 8.16L17.27 8.16L17.27 8.16Q17.02 7.78 17.02 7.23L17.02 7.23L17.02 7.23Q17.02 6.22 17.74 5.69L17.74 5.69L17.74 5.69Q18.46 5.16 19.84 5.16L19.84 5.16L19.84 5.16Q21.07 5.16 21.79 5.59L21.79 5.59L21.79 5.59Q22.51 6.02 22.70 6.97L22.70 6.97L21.59 7.11L21.59 7.11Q21.49 6.62 21.04 6.35L21.04 6.35L21.04 6.35Q20.60 6.09 19.84 6.09L19.84 6.09L19.84 6.09Q19.01 6.09 18.61 6.34L18.61 6.34L18.61 6.34Q18.22 6.60 18.22 7.11L18.22 7.11L18.22 7.11Q18.22 7.42 18.38 7.63L18.38 7.63L18.38 7.63Q18.55 7.83 18.87 7.98L18.87 7.98L18.87 7.98Q19.19 8.12 20.22 8.37L20.22 8.37L20.22 8.37Q21.20 8.62 21.63 8.83L21.63 8.83L21.63 8.83Q22.06 9.04 22.31 9.29L22.31 9.29L22.31 9.29Q22.56 9.54 22.70 9.87L22.70 9.87L22.70 9.87Q22.83 10.21 22.83 10.63ZM27.13 11.71L27.13 12.62L27.13 12.62Q26.52 12.78 25.88 12.78L25.88 12.78L25.88 12.78Q24.40 12.78 24.40 11.11L24.40 11.11L24.40 6.17L23.55 6.17L23.55 5.28L24.45 5.28L24.81 3.62L25.63 3.62L25.63 5.28L27.00 5.28L27.00 6.17L25.63 6.17L25.63 10.84L25.63 10.84Q25.63 11.38 25.81 11.59L25.81 11.59L25.81 11.59Q25.98 11.81 26.41 11.81L26.41 11.81L26.41 11.81Q26.66 11.81 27.13 11.71L27.13 11.71ZM34.39 9.24L29.11 9.24L29.11 9.24Q29.11 10.51 29.64 11.20L29.64 11.20L29.64 11.20Q30.17 11.89 31.18 11.89L31.18 11.89L31.18 11.89Q31.98 11.89 32.46 11.57L32.46 11.57L32.46 11.57Q32.94 11.25 33.11 10.75L33.11 10.75L34.19 11.06L34.19 11.06Q33.53 12.81 31.18 12.81L31.18 12.81L31.18 12.81Q29.54 12.81 28.68 11.83L28.68 11.83L28.68 11.83Q27.82 10.86 27.82 8.93L27.82 8.93L27.82 8.93Q27.82 7.10 28.68 6.12L28.68 6.12L28.68 6.12Q29.54 5.14 31.13 5.14L31.13 5.14L31.13 5.14Q34.39 5.14 34.39 9.07L34.39 9.07L34.39 9.24ZM29.13 8.29L33.12 8.29L33.12 8.29Q33.02 7.12 32.53 6.59L32.53 6.59L32.53 6.59Q32.03 6.05 31.11 6.05L31.11 6.05L31.11 6.05Q30.21 6.05 29.69 6.65L29.69 6.65L29.69 6.65Q29.17 7.25 29.13 8.29L29.13 8.29ZM41.48 12.67L40.26 12.67L40.26 7.98L40.26 7.98Q40.26 6.91 39.97 6.50L39.97 6.50L39.97 6.50Q39.68 6.09 38.91 6.09L38.91 6.09L38.91 6.09Q38.12 6.09 37.67 6.69L37.67 6.69L37.67 6.69Q37.21 7.29 37.21 8.39L37.21 8.39L37.21 12.67L35.98 12.67L35.98 6.86L35.98 6.86Q35.98 5.56 35.94 5.28L35.94 5.28L37.11 5.28L37.11 5.28Q37.11 5.31 37.12 5.46L37.12 5.46L37.12 5.46Q37.13 5.61 37.14 5.81L37.14 5.81L37.14 5.81Q37.15 6.00 37.16 6.54L37.16 6.54L37.18 6.54L37.18 6.54Q37.58 5.76 38.09 5.45L38.09 5.45L38.09 5.45Q38.60 5.14 39.34 5.14L39.34 5.14L39.34 5.14Q40.18 5.14 40.67 5.48L40.67 5.48L40.67 5.48Q41.16 5.81 41.35 6.54L41.35 6.54L41.37 6.54L41.37 6.54Q41.75 5.80 42.30 5.47L42.30 5.47L42.30 5.47Q42.84 5.14 43.61 5.14L43.61 5.14L43.61 5.14Q44.73 5.14 45.24 5.75L45.24 5.75L45.24 5.75Q45.75 6.36 45.75 7.75L45.75 7.75L45.75 12.67L44.54 12.67L44.54 7.98L44.54 7.98Q44.54 6.91 44.24 6.50L44.24 6.50L44.24 6.50Q43.95 6.09 43.18 6.09L43.18 6.09L43.18 6.09Q42.38 6.09 41.93 6.69L41.93 6.69L41.93 6.69Q41.48 7.29 41.48 8.39L41.48 8.39L41.48 12.67ZM53.17 10.63L53.17 10.63L53.17 10.63Q53.17 11.68 52.38 12.24L52.38 12.24L52.38 12.24Q51.59 12.81 50.17 12.81L50.17 12.81L50.17 12.81Q48.79 12.81 48.04 12.36L48.04 12.36L48.04 12.36Q47.29 11.90 47.07 10.94L47.07 10.94L48.15 10.73L48.15 10.73Q48.31 11.32 48.80 11.60L48.80 11.60L48.80 11.60Q49.29 11.87 50.17 11.87L50.17 11.87L50.17 11.87Q51.11 11.87 51.54 11.59L51.54 11.59L51.54 11.59Q51.97 11.30 51.97 10.73L51.97 10.73L51.97 10.73Q51.97 10.29 51.67 10.01L51.67 10.01L51.67 10.01Q51.37 9.74 50.70 9.56L50.70 9.56L49.82 9.33L49.82 9.33Q48.76 9.06 48.31 8.79L48.31 8.79L48.31 8.79Q47.87 8.53 47.61 8.16L47.61 8.16L47.61 8.16Q47.36 7.78 47.36 7.23L47.36 7.23L47.36 7.23Q47.36 6.22 48.08 5.69L48.08 5.69L48.08 5.69Q48.80 5.16 50.18 5.16L50.18 5.16L50.18 5.16Q51.41 5.16 52.13 5.59L52.13 5.59L52.13 5.59Q52.85 6.02 53.04 6.97L53.04 6.97L51.93 7.11L51.93 7.11Q51.83 6.62 51.38 6.35L51.38 6.35L51.38 6.35Q50.93 6.09 50.18 6.09L50.18 6.09L50.18 6.09Q49.35 6.09 48.95 6.34L48.95 6.34L48.95 6.34Q48.56 6.60 48.56 7.11L48.56 7.11L48.56 7.11Q48.56 7.42 48.72 7.63L48.72 7.63L48.72 7.63Q48.88 7.83 49.21 7.98L49.21 7.98L49.21 7.98Q49.53 8.12 50.56 8.37L50.56 8.37L50.56 8.37Q51.54 8.62 51.97 8.83L51.97 8.83L51.97 8.83Q52.40 9.04 52.65 9.29L52.65 9.29L52.65 9.29Q52.90 9.54 53.03 9.87L53.03 9.87L53.03 9.87Q53.17 10.21 53.17 10.63ZM64.89 12.67L58.71 12.67L58.71 3.04L60.02 3.04L60.02 11.61L64.89 11.61L64.89 12.67ZM68.18 12.81L68.18 12.81L68.18 12.81Q67.07 12.81 66.51 12.22L66.51 12.22L66.51 12.22Q65.95 11.63 65.95 10.61L65.95 10.61L65.95 10.61Q65.95 9.46 66.70 8.85L66.70 8.85L66.70 8.85Q67.46 8.23 69.14 8.19L69.14 8.19L70.80 8.16L70.80 7.76L70.80 7.76Q70.80 6.86 70.42 6.47L70.42 6.47L70.42 6.47Q70.03 6.08 69.21 6.08L69.21 6.08L69.21 6.08Q68.39 6.08 68.01 6.36L68.01 6.36L68.01 6.36Q67.63 6.64 67.56 7.25L67.56 7.25L66.27 7.14L66.27 7.14Q66.59 5.14 69.24 5.14L69.24 5.14L69.24 5.14Q70.64 5.14 71.34 5.78L71.34 5.78L71.34 5.78Q72.04 6.42 72.04 7.63L72.04 7.63L72.04 10.81L72.04 10.81Q72.04 11.36 72.19 11.64L72.19 11.64L72.19 11.64Q72.33 11.92 72.73 11.92L72.73 11.92L72.73 11.92Q72.91 11.92 73.14 11.87L73.14 11.87L73.14 12.63L73.14 12.63Q72.67 12.74 72.19 12.74L72.19 12.74L72.19 12.74Q71.50 12.74 71.19 12.38L71.19 12.38L71.19 12.38Q70.88 12.02 70.84 11.26L70.84 11.26L70.80 11.26L70.80 11.26Q70.33 12.11 69.70 12.46L69.70 12.46L69.70 12.46Q69.08 12.81 68.18 12.81ZM68.46 11.89L68.46 11.89L68.46 11.89Q69.14 11.89 69.67 11.58L69.67 11.58L69.67 11.58Q70.19 11.27 70.50 10.74L70.50 10.74L70.50 10.74Q70.80 10.20 70.80 9.63L70.80 9.63L70.80 9.02L69.45 9.05L69.45 9.05Q68.58 9.06 68.14 9.23L68.14 9.23L68.14 9.23Q67.69 9.39 67.45 9.73L67.45 9.73L67.45 9.73Q67.21 10.08 67.21 10.63L67.21 10.63L67.21 10.63Q67.21 11.23 67.54 11.56L67.54 11.56L67.54 11.56Q67.86 11.89 68.46 11.89ZM80.34 8.94L80.34 8.94L80.34 8.94Q80.34 12.81 77.62 12.81L77.62 12.81L77.62 12.81Q76.77 12.81 76.22 12.51L76.22 12.51L76.22 12.51Q75.66 12.20 75.31 11.53L75.31 11.53L75.30 11.53L75.30 11.53Q75.30 11.74 75.27 12.17L75.27 12.17L75.27 12.17Q75.24 12.61 75.23 12.67L75.23 12.67L74.04 12.67L74.04 12.67Q74.08 12.30 74.08 11.15L74.08 11.15L74.08 2.53L75.31 2.53L75.31 5.42L75.31 5.42Q75.31 5.87 75.28 6.47L75.28 6.47L75.31 6.47L75.31 6.47Q75.65 5.76 76.22 5.45L76.22 5.45L76.22 5.45Q76.78 5.14 77.62 5.14L77.62 5.14L77.62 5.14Q79.02 5.14 79.68 6.08L79.68 6.08L79.68 6.08Q80.34 7.03 80.34 8.94ZM79.04 8.98L79.04 8.98L79.04 8.98Q79.04 7.43 78.63 6.76L78.63 6.76L78.63 6.76Q78.22 6.09 77.30 6.09L77.30 6.09L77.30 6.09Q76.26 6.09 75.79 6.80L75.79 6.80L75.79 6.80Q75.31 7.51 75.31 9.06L75.31 9.06L75.31 9.06Q75.31 10.51 75.78 11.21L75.78 11.21L75.78 11.21Q76.24 11.90 77.29 11.90L77.29 11.90L77.29 11.90Q78.22 11.90 78.63 11.21L78.63 11.21L78.63 11.21Q79.04 10.53 79.04 8.98Z"></path></g><!----><!----></svg>