<svg data-v-fde0c5aa="" xmlns="http://www.w3.org/2000/svg" viewBox="0 0 300 300" class="font"><!----><defs data-v-fde0c5aa=""><!----></defs><rect data-v-fde0c5aa="" fill="#E87D22" x="0" y="0" width="300px" height="300px" class="logo-background-square"></rect><defs data-v-fde0c5aa=""><!----></defs><g data-v-fde0c5aa="" id="d3080e3a-1e99-443e-9602-c53756930200" fill="#762A0C" transform="matrix(2.5477707386016846,0,0,2.5477707386016846,38.292993557888465,126.01273791938146)"><path d="M4.48 3.64L4.48 3.64Q6.96 3.64 8.05 5.60L8.05 5.60L7.08 6.38L7.08 6.38Q6.66 5.46 6.08 5.07L6.08 5.07L6.08 5.07Q5.50 4.69 4.49 4.69L4.49 4.69L4.49 4.69Q3.43 4.69 2.82 5.13L2.82 5.13L2.82 5.13Q2.21 5.57 2.21 6.26L2.21 6.26L2.21 6.26Q2.21 6.71 2.45 7.00L2.45 7.00L2.45 7.00Q2.69 7.29 3.24 7.51L3.24 7.51L3.24 7.51Q3.79 7.73 4.77 7.90L4.77 7.90L4.77 7.90Q6.61 8.20 7.37 8.82L7.37 8.82L7.37 8.82Q8.13 9.44 8.13 10.53L8.13 10.53L8.13 10.53Q8.13 11.31 7.69 11.91L7.69 11.91L7.69 11.91Q7.25 12.50 6.44 12.83L6.44 12.83L6.44 12.83Q5.63 13.16 4.56 13.16L4.56 13.16L4.56 13.16Q3.16 13.16 2.18 12.61L2.18 12.61L2.18 12.61Q1.19 12.07 0.67 11.16L0.67 11.16L1.64 10.37L1.64 10.37Q2.02 11.20 2.75 11.65L2.75 11.65L2.75 11.65Q3.49 12.11 4.59 12.11L4.59 12.11L4.59 12.11Q5.68 12.11 6.33 11.71L6.33 11.71L6.33 11.71Q6.97 11.31 6.97 10.58L6.97 10.58L6.97 10.58Q6.97 9.97 6.41 9.60L6.41 9.60L6.41 9.60Q5.85 9.24 4.42 8.99L4.42 8.99L4.42 8.99Q2.58 8.67 1.81 8.06L1.81 8.06L1.81 8.06Q1.04 7.46 1.04 6.38L1.04 6.38L1.04 6.38Q1.04 5.64 1.46 5.01L1.46 5.01L1.46 5.01Q1.88 4.38 2.66 4.01L2.66 4.01L2.66 4.01Q3.44 3.64 4.48 3.64L4.48 3.64ZM15.86 6.02L12.57 14.20L12.57 14.20Q12.17 15.20 11.66 15.62L11.66 15.62L11.66 15.62Q11.16 16.03 10.36 16.03L10.36 16.03L10.36 16.03Q9.83 16.03 9.47 15.89L9.47 15.89L9.47 15.89Q9.11 15.75 8.82 15.44L8.82 15.44L9.21 14.49L9.21 14.49Q9.62 15.05 10.35 15.05L10.35 15.05L10.35 15.05Q10.75 15.05 11.07 14.80L11.07 14.80L11.07 14.80Q11.38 14.56 11.62 13.92L11.62 13.92L11.98 13.01L9.06 6.02L10.33 6.02L12.08 10.58L12.52 11.83L13.02 10.44L14.66 6.02L15.86 6.02ZM19.60 13.16L19.60 13.16Q18.59 13.16 17.78 12.76L17.78 12.76L17.78 12.76Q16.97 12.36 16.59 11.58L16.59 11.58L17.50 10.95L17.50 10.95Q17.74 11.56 18.33 11.87L18.33 11.87L18.33 11.87Q18.91 12.18 19.71 12.18L19.71 12.18L19.71 12.18Q20.54 12.18 20.97 11.89L20.97 11.89L20.97 11.89Q21.41 11.59 21.41 11.14L21.41 11.14L21.41 11.14Q21.41 10.74 21 10.49L21 10.49L21 10.49Q20.59 10.25 19.57 10.07L19.57 10.07L19.57 10.07Q18.56 9.88 17.98 9.63L17.98 9.63L17.98 9.63Q17.39 9.37 17.12 8.97L17.12 8.97L17.12 8.97Q16.86 8.57 16.86 7.98L16.86 7.98L16.86 7.98Q16.86 7.41 17.19 6.93L17.19 6.93L17.19 6.93Q17.53 6.45 18.16 6.17L18.16 6.17L18.16 6.17Q18.79 5.88 19.61 5.88L19.61 5.88L19.61 5.88Q20.73 5.88 21.41 6.29L21.41 6.29L21.41 6.29Q22.09 6.71 22.39 7.56L22.39 7.56L21.43 8.12L21.43 8.12Q21.21 7.45 20.76 7.15L20.76 7.15L20.76 7.15Q20.30 6.86 19.61 6.86L19.61 6.86L19.61 6.86Q18.93 6.86 18.45 7.17L18.45 7.17L18.45 7.17Q17.98 7.48 17.98 7.88L17.98 7.88L17.98 7.88Q17.98 8.34 18.39 8.60L18.39 8.60L18.39 8.60Q18.80 8.85 19.87 9.03L19.87 9.03L19.87 9.03Q21.32 9.27 21.92 9.74L21.92 9.74L21.92 9.74Q22.53 10.22 22.53 11.09L22.53 11.09L22.53 11.09Q22.53 11.69 22.17 12.16L22.17 12.16L22.17 12.16Q21.81 12.63 21.15 12.89L21.15 12.89L21.15 12.89Q20.48 13.16 19.60 13.16L19.60 13.16ZM28.49 11.59L28.88 12.53L28.88 12.53Q28.18 13.16 27.08 13.16L27.08 13.16L27.08 13.16Q26.22 13.16 25.68 12.70L25.68 12.70L25.68 12.70Q25.14 12.24 25.13 11.28L25.13 11.28L25.13 6.99L23.73 6.99L23.73 6.02L25.13 6.02L25.13 4.34L26.25 4.03L26.25 6.02L28.84 6.02L28.84 6.99L26.25 6.99L26.25 11.09L26.25 11.09Q26.25 11.59 26.54 11.85L26.54 11.85L26.54 11.85Q26.82 12.11 27.30 12.11L27.30 12.11L27.30 12.11Q27.97 12.11 28.49 11.59L28.49 11.59ZM36.47 9.16L36.47 9.16Q36.47 9.55 36.41 9.94L36.41 9.94L31.14 9.94L31.14 9.94Q31.23 11.00 31.84 11.59L31.84 11.59L31.84 11.59Q32.45 12.18 33.42 12.18L33.42 12.18L33.42 12.18Q34.19 12.18 34.70 11.91L34.70 11.91L34.70 11.91Q35.21 11.65 35.39 11.14L35.39 11.14L36.33 11.63L36.33 11.63Q35.91 12.38 35.21 12.77L35.21 12.77L35.21 12.77Q34.51 13.16 33.42 13.16L33.42 13.16L33.42 13.16Q31.84 13.16 30.93 12.19L30.93 12.19L30.93 12.19Q30.03 11.23 30.03 9.52L30.03 9.52L30.03 9.52Q30.03 7.81 30.89 6.85L30.89 6.85L30.89 6.85Q31.75 5.88 33.33 5.88L33.33 5.88L33.33 5.88Q34.31 5.88 35.03 6.31L35.03 6.31L35.03 6.31Q35.74 6.75 36.11 7.49L36.11 7.49L36.11 7.49Q36.47 8.23 36.47 9.16L36.47 9.16ZM33.33 6.86L33.33 6.86Q32.41 6.86 31.84 7.41L31.84 7.41L31.84 7.41Q31.28 7.95 31.15 8.95L31.15 8.95L35.39 8.95L35.39 8.95Q35.28 7.97 34.75 7.41L34.75 7.41L34.75 7.41Q34.22 6.86 33.33 6.86L33.33 6.86ZM46.73 5.88L46.73 5.88Q47.43 5.88 48.04 6.17L48.04 6.17L48.04 6.17Q48.65 6.45 49.03 7.06L49.03 7.06L49.03 7.06Q49.41 7.66 49.41 8.54L49.41 8.54L49.41 13.02L48.29 13.02L48.29 8.65L48.29 8.65Q48.29 7.74 47.83 7.30L47.83 7.30L47.83 7.30Q47.38 6.86 46.63 6.86L46.63 6.86L46.63 6.86Q46.07 6.86 45.61 7.13L45.61 7.13L45.61 7.13Q45.14 7.41 44.85 7.93L44.85 7.93L44.85 7.93Q44.56 8.46 44.56 9.18L44.56 9.18L44.56 13.02L43.44 13.02L43.44 8.65L43.44 8.65Q43.44 7.74 42.99 7.30L42.99 7.30L42.99 7.30Q42.53 6.86 41.79 6.86L41.79 6.86L41.79 6.86Q41.29 6.86 40.81 7.12L40.81 7.12L40.81 7.12Q40.33 7.38 40.03 7.92L40.03 7.92L40.03 7.92Q39.72 8.47 39.72 9.28L39.72 9.28L39.72 13.02L38.60 13.02L38.60 6.02L39.58 6.02L39.65 7.11L39.65 7.11Q40.01 6.50 40.61 6.19L40.61 6.19L40.61 6.19Q41.20 5.88 41.89 5.88L41.89 5.88L41.89 5.88Q42.66 5.88 43.31 6.23L43.31 6.23L43.31 6.23Q43.96 6.58 44.30 7.25L44.30 7.25L44.30 7.25Q44.60 6.58 45.30 6.23L45.30 6.23L45.30 6.23Q46.00 5.88 46.73 5.88L46.73 5.88ZM54.32 13.16L54.32 13.16Q53.31 13.16 52.50 12.76L52.50 12.76L52.50 12.76Q51.69 12.36 51.31 11.58L51.31 11.58L52.22 10.95L52.22 10.95Q52.46 11.56 53.05 11.87L53.05 11.87L53.05 11.87Q53.63 12.18 54.43 12.18L54.43 12.18L54.43 12.18Q55.26 12.18 55.69 11.89L55.69 11.89L55.69 11.89Q56.13 11.59 56.13 11.14L56.13 11.14L56.13 11.14Q56.13 10.74 55.72 10.49L55.72 10.49L55.72 10.49Q55.31 10.25 54.29 10.07L54.29 10.07L54.29 10.07Q53.28 9.88 52.70 9.63L52.70 9.63L52.70 9.63Q52.11 9.37 51.84 8.97L51.84 8.97L51.84 8.97Q51.58 8.57 51.58 7.98L51.58 7.98L51.58 7.98Q51.58 7.41 51.91 6.93L51.91 6.93L51.91 6.93Q52.25 6.45 52.88 6.17L52.88 6.17L52.88 6.17Q53.51 5.88 54.33 5.88L54.33 5.88L54.33 5.88Q55.45 5.88 56.13 6.29L56.13 6.29L56.13 6.29Q56.81 6.71 57.11 7.56L57.11 7.56L56.15 8.12L56.15 8.12Q55.93 7.45 55.47 7.15L55.47 7.15L55.47 7.15Q55.02 6.86 54.33 6.86L54.33 6.86L54.33 6.86Q53.65 6.86 53.17 7.17L53.17 7.17L53.17 7.17Q52.70 7.48 52.70 7.88L52.70 7.88L52.70 7.88Q52.70 8.34 53.11 8.60L53.11 8.60L53.11 8.60Q53.52 8.85 54.59 9.03L54.59 9.03L54.59 9.03Q56.04 9.27 56.64 9.74L56.64 9.74L56.64 9.74Q57.25 10.22 57.25 11.09L57.25 11.09L57.25 11.09Q57.25 11.69 56.89 12.16L56.89 12.16L56.89 12.16Q56.53 12.63 55.87 12.89L55.87 12.89L55.87 12.89Q55.20 13.16 54.32 13.16L54.32 13.16ZM65.42 11.97L70.71 11.97L70.71 13.02L64.30 13.02L64.30 3.78L65.42 3.78L65.42 11.97ZM78.20 12.21L78.20 12.21Q78.48 12.21 78.76 12.14L78.76 12.14L78.69 13.02L78.69 13.02Q78.30 13.16 77.85 13.16L77.85 13.16L77.85 13.16Q77.31 13.16 76.99 12.92L76.99 12.92L76.99 12.92Q76.68 12.68 76.59 12.12L76.59 12.12L76.59 12.12Q76.27 12.61 75.65 12.89L75.65 12.89L75.65 12.89Q75.03 13.16 74.34 13.16L74.34 13.16L74.34 13.16Q73.30 13.16 72.63 12.68L72.63 12.68L72.63 12.68Q71.96 12.19 71.96 11.28L71.96 11.28L71.96 11.28Q71.96 10.49 72.66 9.90L72.66 9.90L72.66 9.90Q73.36 9.32 74.69 9.10L74.69 9.10L76.55 8.79L76.55 8.40L76.55 8.40Q76.55 7.70 76.12 7.28L76.12 7.28L76.12 7.28Q75.68 6.86 74.91 6.86L74.91 6.86L74.91 6.86Q74.21 6.86 73.70 7.20L73.70 7.20L73.70 7.20Q73.19 7.53 72.91 8.19L72.91 8.19L72.09 7.59L72.09 7.59Q72.37 6.80 73.13 6.34L73.13 6.34L73.13 6.34Q73.89 5.88 74.91 5.88L74.91 5.88L74.91 5.88Q76.16 5.88 76.92 6.48L76.92 6.48L76.92 6.48Q77.67 7.08 77.67 8.26L77.67 8.26L77.67 11.70L77.67 11.70Q77.67 11.96 77.80 12.08L77.80 12.08L77.80 12.08Q77.92 12.21 78.20 12.21L78.20 12.21ZM74.40 12.18L74.40 12.18Q75.28 12.18 75.92 11.76L75.92 11.76L75.92 11.76Q76.55 11.34 76.55 10.67L76.55 10.67L76.55 9.70L74.98 10.00L74.98 10.00Q74.05 10.16 73.58 10.48L73.58 10.48L73.58 10.48Q73.12 10.79 73.12 11.28L73.12 11.28L73.12 11.28Q73.12 11.72 73.46 11.95L73.46 11.95L73.46 11.95Q73.79 12.18 74.40 12.18L74.40 12.18ZM83.83 5.88L83.83 5.88Q85.30 5.88 86.16 6.85L86.16 6.85L86.16 6.85Q87.02 7.83 87.02 9.52L87.02 9.52L87.02 9.52Q87.02 11.21 86.16 12.19L86.16 12.19L86.16 12.19Q85.30 13.16 83.83 13.16L83.83 13.16L83.83 13.16Q83.02 13.16 82.38 12.79L82.38 12.79L82.38 12.79Q81.75 12.42 81.44 11.80L81.44 11.80L81.37 13.02L80.39 13.02L80.39 2.80L81.51 2.80L81.51 7.11L81.51 7.11Q81.84 6.55 82.45 6.22L82.45 6.22L82.45 6.22Q83.06 5.88 83.83 5.88L83.83 5.88ZM83.71 12.18L83.71 12.18Q84.73 12.18 85.32 11.46L85.32 11.46L85.32 11.46Q85.90 10.74 85.90 9.52L85.90 9.52L85.90 9.52Q85.90 8.30 85.32 7.58L85.32 7.58L85.32 7.58Q84.73 6.86 83.71 6.86L83.71 6.86L83.71 6.86Q82.70 6.86 82.10 7.56L82.10 7.56L82.10 7.56Q81.51 8.26 81.51 9.44L81.51 9.44L81.51 9.60L81.51 9.60Q81.51 10.78 82.10 11.48L82.10 11.48L82.10 11.48Q82.70 12.18 83.71 12.18L83.71 12.18Z"></path></g><!----><!----></svg>